# xmcd CD database file
#
# Track frame offsets:
#	150
#	55362
#	90315
#	114067
#	140177
#	175087
#	198017
#	219951
#	249123
#	279547
#
# Disc length: 3995 seconds
#
# Revision: 0
# Processed by: cddbd v1.5.2PL0 Copyright (c) Steve Scherf et al.
# Submitted via: CDex 1.70beta2
#
DISCID=7f0f990a
DTITLE=Gabriel Coburger - Quintet Jean-Paul
DYEAR=2007
DGENRE=Jazz
TTITLE0=Back To Church
TTITLE1=Groovin' Low
TTITLE2=Children's Funk
TTITLE3=Gegenwärts
TTITLE4=Seasons
TTITLE5=Bad Influence
TTITLE6=On The Dark Side
TTITLE7=Vive La France
TTITLE8=Baladaboss
TTITLE9=You Must Believe In Spring
EXTD=YEAR: 2007
EXTT0=
EXTT1=
EXTT2=
EXTT3=
EXTT4=
EXTT5=
EXTT6=
EXTT7=
EXTT8=
EXTT9=
PLAYORDER=
